<svg width="512" height="512" viewBox="0 0 512 512" fill="none" xmlns="http://www.w3.org/2000/svg">
<circle cx="256" cy="256" r="256" fill="#0C2137"/>
<path d="M229.93 241.814L229.929 241.814L122.281 103.364C122.28 103.364 122.28 103.363 122.279 103.363C119.478 99.7647 116.068 98.25 112.945 98.25C109.821 98.25 106.411 99.7647 103.611 103.363L229.93 241.814ZM229.93 241.814C235.746 249.292 235.746 261.707 229.93 269.184L229.929 269.184M229.93 241.814L229.929 269.184M229.929 269.184L122.28 407.613C122.28 407.614 122.28 407.614 122.28 407.614C119.478 411.216 116.067 412.732 112.945 412.732C109.822 412.732 106.412 411.216 103.611 407.614C97.7965 400.136 97.7965 387.721 103.611 380.243L100.445 377.781M229.929 269.184L100.445 377.781M100.445 377.781L103.611 380.243L198.564 258.108L200.592 255.499M100.445 377.781L200.592 255.499M200.592 255.499L198.564 252.89M200.592 255.499L198.564 252.89M198.564 252.89L103.611 130.777C103.611 130.777 103.611 130.777 103.611 130.777M198.564 252.89L103.611 130.777M103.611 130.777C97.7969 123.3 97.7965 110.842 103.609 103.364L103.611 130.777ZM400.056 375.107C406.702 375.107 413.75 382.458 413.75 393.928C413.75 405.399 406.702 412.75 400.056 412.75H238.556C231.909 412.75 224.861 405.399 224.861 393.928C224.861 382.458 231.909 375.107 238.556 375.107H400.056Z" stroke="#3294F8" stroke-width="8.5"/>
</svg>
